<mxfile host="app.diagrams.net" agent="Mozilla/5.0 (Windows NT 10.0; Win64; x64) AppleWebKit/537.36 (KHTML, like Gecko) Chrome/137.0.0.0 Safari/537.36" version="27.1.6">
  <diagram name="Page-1" id="Re3S74HyGa-vC85Nvsf-">
    <mxGraphModel dx="983" dy="579" grid="1" gridSize="10" guides="1" tooltips="1" connect="1" arrows="1" fold="1" page="1" pageScale="1" pageWidth="1169" pageHeight="827" math="0" shadow="0">
      <root>
        <mxCell id="0" />
        <mxCell id="1" parent="0" />
        <mxCell id="Hx8JOCmAExxxSgMV2SGa-2" value="t - H" style="rounded=1;whiteSpace=wrap;html=1;fillColor=#f8cecc;strokeColor=#b85450;" parent="1" vertex="1">
          <mxGeometry x="80" y="130" width="60" height="30" as="geometry" />
        </mxCell>
        <mxCell id="Hx8JOCmAExxxSgMV2SGa-3" value="&lt;b&gt;. . .&lt;/b&gt;" style="rounded=1;whiteSpace=wrap;html=1;fillColor=#f8cecc;strokeColor=#b85450;" parent="1" vertex="1">
          <mxGeometry x="150" y="130" width="60" height="30" as="geometry" />
        </mxCell>
        <mxCell id="Hx8JOCmAExxxSgMV2SGa-4" value="t - 3" style="rounded=1;whiteSpace=wrap;html=1;fillColor=#f8cecc;strokeColor=#b85450;" parent="1" vertex="1">
          <mxGeometry x="220" y="130" width="60" height="30" as="geometry" />
        </mxCell>
        <mxCell id="Hx8JOCmAExxxSgMV2SGa-5" value="t - 2" style="rounded=1;whiteSpace=wrap;html=1;fillColor=#f8cecc;strokeColor=#b85450;" parent="1" vertex="1">
          <mxGeometry x="290" y="130" width="60" height="30" as="geometry" />
        </mxCell>
        <mxCell id="Hx8JOCmAExxxSgMV2SGa-6" value="t - 1" style="rounded=1;whiteSpace=wrap;html=1;fillColor=#f8cecc;strokeColor=#b85450;" parent="1" vertex="1">
          <mxGeometry x="360" y="130" width="60" height="30" as="geometry" />
        </mxCell>
        <mxCell id="Hx8JOCmAExxxSgMV2SGa-7" value="t" style="rounded=1;whiteSpace=wrap;html=1;fillColor=#f8cecc;strokeColor=#b85450;" parent="1" vertex="1">
          <mxGeometry x="430" y="130" width="60" height="30" as="geometry" />
        </mxCell>
        <mxCell id="Hx8JOCmAExxxSgMV2SGa-8" value="t + 1" style="rounded=1;whiteSpace=wrap;html=1;fillColor=#fff2cc;strokeColor=#D6B656;strokeWidth=1;" parent="1" vertex="1">
          <mxGeometry x="500" y="130" width="60" height="30" as="geometry" />
        </mxCell>
        <mxCell id="Hx8JOCmAExxxSgMV2SGa-9" value="" style="rounded=1;whiteSpace=wrap;html=1;fillColor=none;strokeWidth=2;perimeterSpacing=1;glass=0;shadow=0;strokeColor=#000000;" parent="1" vertex="1">
          <mxGeometry x="290" y="130" width="200" height="30" as="geometry" />
        </mxCell>
        <mxCell id="Hx8JOCmAExxxSgMV2SGa-12" value="t - H" style="rounded=1;whiteSpace=wrap;html=1;fillColor=#f8cecc;strokeColor=#b85450;" parent="1" vertex="1">
          <mxGeometry x="80" y="200" width="60" height="30" as="geometry" />
        </mxCell>
        <mxCell id="Hx8JOCmAExxxSgMV2SGa-13" value="&lt;b&gt;. . .&lt;/b&gt;" style="rounded=1;whiteSpace=wrap;html=1;fillColor=#f8cecc;strokeColor=#b85450;" parent="1" vertex="1">
          <mxGeometry x="150" y="200" width="60" height="30" as="geometry" />
        </mxCell>
        <mxCell id="Hx8JOCmAExxxSgMV2SGa-14" value="t - 3" style="rounded=1;whiteSpace=wrap;html=1;fillColor=#f8cecc;strokeColor=#b85450;" parent="1" vertex="1">
          <mxGeometry x="220" y="200" width="60" height="30" as="geometry" />
        </mxCell>
        <mxCell id="Hx8JOCmAExxxSgMV2SGa-15" value="t - 2" style="rounded=1;whiteSpace=wrap;html=1;fillColor=#f8cecc;strokeColor=#b85450;" parent="1" vertex="1">
          <mxGeometry x="290" y="200" width="60" height="30" as="geometry" />
        </mxCell>
        <mxCell id="Hx8JOCmAExxxSgMV2SGa-16" value="t - 1" style="rounded=1;whiteSpace=wrap;html=1;fillColor=#f8cecc;strokeColor=#b85450;" parent="1" vertex="1">
          <mxGeometry x="360" y="200" width="60" height="30" as="geometry" />
        </mxCell>
        <mxCell id="Hx8JOCmAExxxSgMV2SGa-17" value="t" style="rounded=1;whiteSpace=wrap;html=1;fillColor=#f8cecc;strokeColor=#b85450;" parent="1" vertex="1">
          <mxGeometry x="430" y="200" width="60" height="30" as="geometry" />
        </mxCell>
        <mxCell id="Hx8JOCmAExxxSgMV2SGa-18" value="t + 1" style="rounded=1;whiteSpace=wrap;html=1;fillColor=#fff2cc;strokeColor=#d6b656;" parent="1" vertex="1">
          <mxGeometry x="500" y="200" width="60" height="30" as="geometry" />
        </mxCell>
        <mxCell id="Hx8JOCmAExxxSgMV2SGa-19" value="" style="rounded=1;whiteSpace=wrap;html=1;fillColor=none;strokeWidth=2;" parent="1" vertex="1">
          <mxGeometry x="360" y="200" width="200" height="30" as="geometry" />
        </mxCell>
        <mxCell id="Hx8JOCmAExxxSgMV2SGa-21" value="t + 2" style="rounded=1;whiteSpace=wrap;html=1;fillColor=#fff2cc;strokeColor=#d6b656;strokeWidth=1;" parent="1" vertex="1">
          <mxGeometry x="570" y="200" width="60" height="30" as="geometry" />
        </mxCell>
        <mxCell id="Hx8JOCmAExxxSgMV2SGa-23" value="t - H" style="rounded=1;whiteSpace=wrap;html=1;fillColor=#f8cecc;strokeColor=#b85450;" parent="1" vertex="1">
          <mxGeometry x="80" y="340" width="60" height="30" as="geometry" />
        </mxCell>
        <mxCell id="Hx8JOCmAExxxSgMV2SGa-24" value="&lt;b&gt;. . .&lt;/b&gt;" style="rounded=1;whiteSpace=wrap;html=1;fillColor=#f8cecc;strokeColor=#b85450;" parent="1" vertex="1">
          <mxGeometry x="150" y="340" width="60" height="30" as="geometry" />
        </mxCell>
        <mxCell id="Hx8JOCmAExxxSgMV2SGa-25" value="t - 3" style="rounded=1;whiteSpace=wrap;html=1;fillColor=#f8cecc;strokeColor=#b85450;" parent="1" vertex="1">
          <mxGeometry x="220" y="340" width="60" height="30" as="geometry" />
        </mxCell>
        <mxCell id="Hx8JOCmAExxxSgMV2SGa-26" value="t - 2" style="rounded=1;whiteSpace=wrap;html=1;fillColor=#f8cecc;strokeColor=#b85450;" parent="1" vertex="1">
          <mxGeometry x="290" y="340" width="60" height="30" as="geometry" />
        </mxCell>
        <mxCell id="Hx8JOCmAExxxSgMV2SGa-27" value="t - 1" style="rounded=1;whiteSpace=wrap;html=1;fillColor=#f8cecc;strokeColor=#b85450;" parent="1" vertex="1">
          <mxGeometry x="360" y="340" width="60" height="30" as="geometry" />
        </mxCell>
        <mxCell id="Hx8JOCmAExxxSgMV2SGa-28" value="t" style="rounded=1;whiteSpace=wrap;html=1;fillColor=#f8cecc;strokeColor=#b85450;" parent="1" vertex="1">
          <mxGeometry x="430" y="340" width="60" height="30" as="geometry" />
        </mxCell>
        <mxCell id="Hx8JOCmAExxxSgMV2SGa-29" value="t + 1" style="rounded=1;whiteSpace=wrap;html=1;fillColor=#fff2cc;strokeColor=#d6b656;" parent="1" vertex="1">
          <mxGeometry x="500" y="340" width="60" height="30" as="geometry" />
        </mxCell>
        <mxCell id="Hx8JOCmAExxxSgMV2SGa-32" value="&lt;b&gt;. . .&lt;/b&gt;" style="rounded=1;whiteSpace=wrap;html=1;fillColor=#fff2cc;strokeColor=#d6b656;" parent="1" vertex="1">
          <mxGeometry x="570" y="340" width="60" height="30" as="geometry" />
        </mxCell>
        <mxCell id="Hx8JOCmAExxxSgMV2SGa-33" value="t + N" style="rounded=1;whiteSpace=wrap;html=1;fillColor=#fff2cc;strokeColor=#d6b656;" parent="1" vertex="1">
          <mxGeometry x="640" y="340" width="60" height="30" as="geometry" />
        </mxCell>
        <mxCell id="Hx8JOCmAExxxSgMV2SGa-34" value="&lt;font style=&quot;font-size: 35px;&quot;&gt;&lt;b&gt;...&lt;/b&gt;&lt;/font&gt;" style="text;html=1;align=center;verticalAlign=middle;whiteSpace=wrap;rounded=0;rotation=-90;" parent="1" vertex="1">
          <mxGeometry x="60" y="260" width="90" height="40" as="geometry" />
        </mxCell>
        <mxCell id="Hx8JOCmAExxxSgMV2SGa-36" value="&lt;font style=&quot;font-size: 35px;&quot;&gt;&lt;b&gt;...&lt;/b&gt;&lt;/font&gt;" style="text;html=1;align=center;verticalAlign=middle;whiteSpace=wrap;rounded=0;rotation=-90;" parent="1" vertex="1">
          <mxGeometry x="200" y="260" width="90" height="40" as="geometry" />
        </mxCell>
        <mxCell id="Hx8JOCmAExxxSgMV2SGa-37" value="&lt;font style=&quot;font-size: 35px;&quot;&gt;&lt;b&gt;...&lt;/b&gt;&lt;/font&gt;" style="text;html=1;align=center;verticalAlign=middle;whiteSpace=wrap;rounded=0;rotation=-90;" parent="1" vertex="1">
          <mxGeometry x="340" y="260" width="90" height="40" as="geometry" />
        </mxCell>
        <mxCell id="Hx8JOCmAExxxSgMV2SGa-38" value="&lt;font style=&quot;font-size: 35px;&quot;&gt;&lt;b&gt;...&lt;/b&gt;&lt;/font&gt;" style="text;html=1;align=center;verticalAlign=middle;whiteSpace=wrap;rounded=0;rotation=-90;" parent="1" vertex="1">
          <mxGeometry x="480" y="260" width="90" height="40" as="geometry" />
        </mxCell>
        <mxCell id="Hx8JOCmAExxxSgMV2SGa-30" value="" style="rounded=1;whiteSpace=wrap;html=1;fillColor=none;strokeWidth=2;" parent="1" vertex="1">
          <mxGeometry x="430" y="340" width="200" height="30" as="geometry" />
        </mxCell>
        <mxCell id="XIRJCg0X2FZaakKbbwfj-3" value="" style="curved=1;endArrow=classic;html=1;rounded=0;edgeStyle=orthogonalEdgeStyle;entryX=0.5;entryY=0;entryDx=0;entryDy=0;exitX=0.5;exitY=0;exitDx=0;exitDy=0;" edge="1" parent="1" source="Hx8JOCmAExxxSgMV2SGa-9" target="Hx8JOCmAExxxSgMV2SGa-8">
          <mxGeometry width="50" height="50" relative="1" as="geometry">
            <mxPoint x="390" y="110" as="sourcePoint" />
            <mxPoint x="440" y="60" as="targetPoint" />
            <Array as="points">
              <mxPoint x="390" y="100" />
              <mxPoint x="530" y="100" />
            </Array>
          </mxGeometry>
        </mxCell>
        <mxCell id="XIRJCg0X2FZaakKbbwfj-4" value="" style="curved=1;endArrow=classic;html=1;rounded=0;edgeStyle=orthogonalEdgeStyle;entryX=0.5;entryY=0;entryDx=0;entryDy=0;exitX=0.5;exitY=0;exitDx=0;exitDy=0;" edge="1" parent="1">
          <mxGeometry width="50" height="50" relative="1" as="geometry">
            <mxPoint x="460" y="199" as="sourcePoint" />
            <mxPoint x="600" y="200" as="targetPoint" />
            <Array as="points">
              <mxPoint x="460" y="170" />
              <mxPoint x="600" y="170" />
            </Array>
          </mxGeometry>
        </mxCell>
        <mxCell id="XIRJCg0X2FZaakKbbwfj-5" value="" style="curved=1;endArrow=classic;html=1;rounded=0;edgeStyle=orthogonalEdgeStyle;entryX=0.5;entryY=0;entryDx=0;entryDy=0;exitX=0.5;exitY=0;exitDx=0;exitDy=0;" edge="1" parent="1">
          <mxGeometry width="50" height="50" relative="1" as="geometry">
            <mxPoint x="530" y="339" as="sourcePoint" />
            <mxPoint x="670" y="340" as="targetPoint" />
            <Array as="points">
              <mxPoint x="530" y="310" />
              <mxPoint x="670" y="310" />
            </Array>
          </mxGeometry>
        </mxCell>
        <mxCell id="XIRJCg0X2FZaakKbbwfj-17" value="" style="rounded=1;whiteSpace=wrap;html=1;fillColor=#fff2cc;strokeColor=#D6B656;strokeWidth=1;" vertex="1" parent="1">
          <mxGeometry x="700" y="170" width="40" height="20" as="geometry" />
        </mxCell>
        <mxCell id="XIRJCg0X2FZaakKbbwfj-18" value="" style="rounded=1;whiteSpace=wrap;html=1;fillColor=#f8cecc;strokeColor=#b85450;" vertex="1" parent="1">
          <mxGeometry x="700" y="130" width="40" height="20" as="geometry" />
        </mxCell>
        <mxCell id="XIRJCg0X2FZaakKbbwfj-20" value="" style="rounded=1;whiteSpace=wrap;html=1;fillColor=none;strokeWidth=2;" vertex="1" parent="1">
          <mxGeometry x="700" y="210" width="40" height="20" as="geometry" />
        </mxCell>
        <mxCell id="XIRJCg0X2FZaakKbbwfj-22" value="Observed values" style="text;html=1;align=center;verticalAlign=middle;whiteSpace=wrap;rounded=0;" vertex="1" parent="1">
          <mxGeometry x="740" y="125" width="110" height="30" as="geometry" />
        </mxCell>
        <mxCell id="XIRJCg0X2FZaakKbbwfj-23" value="Predicted values" style="text;html=1;align=center;verticalAlign=middle;whiteSpace=wrap;rounded=0;" vertex="1" parent="1">
          <mxGeometry x="740" y="165" width="110" height="30" as="geometry" />
        </mxCell>
        <mxCell id="XIRJCg0X2FZaakKbbwfj-24" value="Historical window" style="text;html=1;align=center;verticalAlign=middle;whiteSpace=wrap;rounded=0;" vertex="1" parent="1">
          <mxGeometry x="740" y="205" width="110" height="30" as="geometry" />
        </mxCell>
      </root>
    </mxGraphModel>
  </diagram>
</mxfile>
